# File created by Blade
# Date/Time:  Wed Jan 21 14:55:15 2015
# Frame Rate: 120.000 fps
#------------------------------------------------------
:FULLY-SPECIFIED
:DEGREES
1116
root 20.763108 35.475041 -23.306156 -174.759550 -0.891223 -178.944213
Spine -17.981610 -0.324231 0.352507
Head 13.362087 -3.350773 0.969925
LeftShoulder -15.129066 -29.544888 18.065364
LeftArm 8.694785 2.564291 -10.515160
LeftForeArm 7.262980 -0.000000 -2.459038
LeftHand -9.772445 -0.000000 -2.795851
LeftHandThumb1 -26.253704 0.000000 33.147579
RightShoulder -13.704467 -5.724015 -6.905349
RightArm 12.671997 39.594670 16.504783
RightForeArm -34.212739 -0.000000 5.932324
RightHand -10.688567 -0.000000 4.010686
RightHandThumb1 -24.326973 -0.000000 -32.862282
LeftUpLeg 2.846032 13.470596 3.049163
LeftLeg -5.693542 -0.000000 0.000000
LeftFoot -20.213210 25.428075 -14.278051
LeftToeBase 26.226825 -0.000000 -0.000000
RightUpLeg 0.915207 -12.249425 -2.643327
RightLeg -3.194325 -0.000000 0.000000
RightFoot -18.858180 -22.183283 17.557902
RightToeBase 24.754384 -0.000000 -0.000000
1117
root 20.756800 35.473980 -23.319892 -174.749279 -0.928953 -178.939561
Spine -17.999218 -0.350766 0.387771
Head 13.404418 -3.347744 0.949076
LeftShoulder -15.123209 -29.527750 18.069689
LeftArm 8.694606 2.543260 -10.541728
LeftForeArm 7.187217 -0.000000 -2.455452
LeftHand -9.748270 -0.000000 -2.711768
LeftHandThumb1 -26.253704 0.000000 33.147579
RightShoulder -13.709224 -5.742883 -6.913351
RightArm 12.676523 39.640730 16.522644
RightForeArm -34.257910 -0.000000 5.936375
RightHand -10.632762 -0.000000 4.064324
RightHandThumb1 -24.326973 -0.000000 -32.862282
LeftUpLeg 2.854143 13.475017 3.053100
LeftLeg -5.694560 -0.000000 0.000000
LeftFoot -20.220173 25.386158 -14.242231
LeftToeBase 26.252252 -0.000000 -0.000000
RightUpLeg 0.943555 -12.262123 -2.650695
RightLeg -3.214774 -0.000000 0.000000
RightFoot -18.868418 -22.195790 17.594132
RightToeBase 24.761089 -0.000000 -0.000000
1118
root 20.752064 35.472637 -23.331841 -174.732097 -0.942436 -178.943305
Spine -18.014537 -0.351936 0.394985
Head 13.382277 -3.367084 1.001135
LeftShoulder -15.134157 -29.512777 18.095455
LeftArm 8.739251 2.531774 -10.571606
LeftForeArm 7.199665 -0.000000 -2.480469
LeftHand -9.722327 0.000000 -2.729584
LeftHandThumb1 -26.253704 0.000000 33.147579
RightShoulder -13.734849 -5.754385 -6.905994
RightArm 12.712026 39.669463 16.558870
RightForeArm -34.229172 -0.000000 5.929793
RightHand -10.642156 -0.000000 4.077932
RightHandThumb1 -24.326973 -0.000000 -32.862282
LeftUpLeg 2.870072 13.473701 3.043926
LeftLeg -5.725931 -0.000000 0.000000
LeftFoot -20.215040 25.383541 -14.238554
LeftToeBase 26.285663 -0.000000 -0.000000
RightUpLeg 0.950815 -12.282280 -2.660933
RightLeg -3.221552 -0.000000 0.000000
RightFoot -18.878890 -22.193029 17.602506
RightToeBase 24.745381 -0.000000 -0.000000
1119
root 20.747458 35.471791 -23.344098 -174.720198 -0.954346 -178.940385
Spine -18.029054 -0.347913 0.411648
Head 13.382634 -3.394373 1.022751
LeftShoulder -15.127191 -29.508526 18.103105
LeftArm 8.760015 2.562104 -10.585319
LeftForeArm 7.193197 -0.000000 -2.469875
LeftHand -9.830473 -0.000000 -2.678876
LeftHandThumb1 -26.253704 0.000000 33.147579
RightShoulder -13.748365 -5.756240 -6.895568
RightArm 12.722905 39.722823 16.567672
RightForeArm -34.343050 -0.000000 5.954323
RightHand -10.646754 0.000000 4.245442
RightHandThumb1 -24.326973 -0.000000 -32.862282
LeftUpLeg 2.895552 13.483635 3.041455
LeftLeg -5.767580 -0.000000 0.000000
LeftFoot -20.200944 25.384838 -14.228837
LeftToeBase 26.292962 -0.000000 -0.000000
RightUpLeg 0.955764 -12.339718 -2.662568
RightLeg -3.216207 -0.000000 0.000000
RightFoot -18.876154 -22.177884 17.602321
RightToeBase 24.716624 -0.000000 -0.000000
1120
root 20.742169 35.470347 -23.354920 -174.692142 -0.938779 -178.949637
Spine -18.059994 -0.323554 0.410643
Head 13.369392 -3.428473 1.040590
LeftShoulder -15.128550 -29.507021 18.130946
LeftArm 8.771863 2.577334 -10.612979
LeftForeArm 7.139419 -0.000000 -2.473697
LeftHand -9.784517 -0.000000 -2.724819
LeftHandThumb1 -26.253704 0.000000 33.147579
RightShoulder -13.745684 -5.702048 -6.912458
RightArm 12.696407 39.719204 16.583280
RightForeArm -34.348434 -0.000000 5.953008
RightHand -10.586689 -0.000000 4.314387
RightHandThumb1 -24.326973 -0.000000 -32.862282
LeftUpLeg 2.906319 13.518418 3.020846
LeftLeg -5.803394 -0.000000 0.000000
LeftFoot -20.189914 25.373908 -14.229145
LeftToeBase 26.241056 -0.000000 -0.000000
RightUpLeg 0.955533 -12.294914 -2.678507
RightLeg -3.241781 -0.000000 0.000000
RightFoot -18.885328 -22.213043 17.606403
RightToeBase 24.646530 -0.000000 -0.000000
1121
root 20.737644 35.469135 -23.366746 -174.678200 -0.925054 -178.950293
Spine -18.082595 -0.313393 0.425565
Head 13.396141 -3.400284 1.043268
LeftShoulder -15.099978 -29.494507 18.130312
LeftArm 8.745202 2.578412 -10.608469
LeftForeArm 7.190545 0.000000 -2.458052
LeftHand -9.789655 -0.000000 -2.704452
LeftHandThumb1 -26.253704 0.000000 33.147579
RightShoulder -13.755061 -5.755952 -6.896374
RightArm 12.746774 39.702510 16.603816
RightForeArm -34.313928 -0.000000 5.921919
RightHand -10.625904 -0.000000 4.236575
RightHandThumb1 -24.326973 -0.000000 -32.862282
LeftUpLeg 2.936379 13.555648 3.013642
LeftLeg -5.849224 -0.000000 0.000000
LeftFoot -20.171486 25.363628 -14.214825
LeftToeBase 26.252171 -0.000000 -0.000000
RightUpLeg 0.946045 -12.331323 -2.685644
RightLeg -3.219286 -0.000000 0.000000
RightFoot -18.892487 -22.190695 17.583623
RightToeBase 24.689469 -0.000000 -0.000000
1122
root 20.733046 35.467753 -23.377364 -174.663537 -0.914548 -178.958594
Spine -18.098856 -0.293638 0.427794
Head 13.396595 -3.394497 1.054980
LeftShoulder -15.079730 -29.498670 18.127294
LeftArm 8.750051 2.587163 -10.607511
LeftForeArm 7.108754 -0.000000 -2.449820
LeftHand -9.775251 0.000000 -2.694092
LeftHandThumb1 -26.253704 0.000000 33.147579
RightShoulder -13.760604 -5.774390 -6.895343
RightArm 12.740930 39.698037 16.620372
RightForeArm -34.331260 -0.000000 5.921109
RightHand -10.585330 -0.000000 4.206017
RightHandThumb1 -24.326973 -0.000000 -32.862282
LeftUpLeg 2.960737 13.582380 2.998177
LeftLeg -5.887880 -0.000000 0.000000
LeftFoot -20.171455 25.351096 -14.229259
LeftToeBase 26.244780 -0.000000 -0.000000
RightUpLeg 0.959362 -12.290917 -2.702156
RightLeg -3.244801 -0.000000 0.000000
RightFoot -18.900586 -22.227717 17.582159
RightToeBase 24.732797 -0.000000 -0.000000
